<svg preserveAspectRatio="none" width="100%" height="100%" overflow="visible" style="display: block;" viewBox="0 0 64 16" fill="none" xmlns="http://www.w3.org/2000/svg">
<g id="Brand Text" >
<path id="Vector" fill-rule="evenodd" clip-rule="evenodd" d="M5.09642 15.7341H0V0.275226H5.00282C6.54416 0.275226 7.89322 0.600139 9.05006 1.25002C10.2068 1.89985 11.1093 2.80531 11.7573 3.96635C12.4054 5.12745 12.7295 6.47983 12.7295 8.02356C12.7295 9.54655 12.4101 10.8875 11.7713 12.0463C11.1326 13.2052 10.2411 14.1095 9.09683 14.7594C7.95261 15.4092 6.61914 15.7341 5.09642 15.7341ZM2.09283 2.21273V13.7966H4.94651C6.09501 13.7966 7.08617 13.5615 7.92 13.0912C8.75389 12.6209 9.39904 11.9529 9.85556 11.0871C10.3121 10.2213 10.5403 9.20011 10.5403 8.02356C10.5403 6.8265 10.3094 5.79348 9.84739 4.92443C9.38545 4.05538 8.73134 3.38614 7.88505 2.91678C7.03872 2.44742 6.02791 2.21273 4.85257 2.21273H2.09283Z" fill="#111113"/>
<path id="Vector_2" fill-rule="evenodd" clip-rule="evenodd" d="M15.8502 10.9058C15.9165 11.928 16.1955 12.7302 16.6872 13.3124C17.2556 13.9853 18.0737 14.3217 19.1415 14.3217C19.926 14.3217 20.5681 14.1649 21.0679 13.8514C21.5677 13.5379 21.8984 13.085 22.0599 12.4927H23.9438C23.6953 13.6036 23.1503 14.4658 22.3089 15.0795C21.4675 15.6932 20.4023 16 19.1132 16C18.0949 16 17.1958 15.7677 16.4161 15.3031C15.6363 14.8386 15.0262 14.1943 14.5859 13.3703C14.1456 12.5464 13.9255 11.5937 13.9255 10.5125C13.9255 9.42502 14.1405 8.46728 14.5706 7.63929C15.0007 6.81134 15.5981 6.16306 16.3627 5.69445C17.1274 5.22588 18.011 4.99155 19.0136 4.99155C20.009 4.99155 20.874 5.20521 21.6086 5.6325C22.3432 6.05978 22.9129 6.65745 23.3178 7.42556C23.7227 8.19361 23.9251 9.09804 23.9251 10.1387V10.8885L15.8502 10.9058ZM15.8905 9.55928H21.9286C21.9286 8.68599 21.665 7.98613 21.1379 7.45963C20.6107 6.93313 19.9058 6.66987 19.0229 6.66987C18.357 6.66987 17.7863 6.81667 17.3107 7.11026C16.8351 7.40386 16.4702 7.83097 16.216 8.3916C16.059 8.73786 15.9505 9.12707 15.8905 9.55928Z" fill="#111113"/>
<path id="Vector_3" d="M27.6924 15.7341H25.6985V5.29586H27.68V6.66981L27.8513 6.67001C28.5146 5.48244 29.4179 4.99148 31.1791 4.99148C32.5476 4.99148 33.5558 5.38186 34.2037 6.16248C34.8516 6.94317 35.1755 7.9998 35.1755 9.33242V15.7341H33.1816V9.78833C33.1816 8.73534 32.9533 7.9759 32.4967 7.50996C32.04 7.04408 31.4279 6.81111 30.6604 6.81111C29.72 6.81111 28.9903 7.11879 28.4711 7.73409C27.952 8.34945 27.6924 9.16756 27.6924 10.1884V15.7341Z" fill="#111113"/>
<path id="Vector_4" d="M38.9909 15.7341H36.9967V0H38.9909V9.72749H39.1623L44.3713 4.21436L45.6862 5.45208C45.6862 5.45208 43.2377 8.04244 42.364 8.96667C42.1845 9.15655 42.1562 9.44436 42.2954 9.66572C43.1614 11.0436 46.1096 15.7341 46.1096 15.7341H43.8069C43.8069 15.7341 41.9125 12.7136 41.0732 11.3755C40.9792 11.2256 40.8214 11.1278 40.6457 11.1105C40.4699 11.0931 40.2961 11.1583 40.1748 11.2869C39.6769 11.8147 38.9909 12.542 38.9909 12.542V15.7341Z" fill="#111113"/>
<path id="Vector_5" fill-rule="evenodd" clip-rule="evenodd" d="M48.1727 10.9058C48.2391 11.928 48.5181 12.7302 49.0097 13.3124C49.5781 13.9853 50.3962 14.3217 51.464 14.3217C52.2485 14.3217 52.8906 14.1649 53.3904 13.8514C53.8903 13.5379 54.2209 13.085 54.3824 12.4927H56.2663C56.0178 13.6036 55.4728 14.4658 54.6314 15.0795C53.79 15.6932 52.7248 16 51.4357 16C50.4174 16 49.5183 15.7677 48.7386 15.3031C47.9588 14.8386 47.3487 14.1943 46.9084 13.3703C46.4681 12.5464 46.248 11.5937 46.248 10.5125C46.248 9.42502 46.463 8.46728 46.8931 7.63929C47.3232 6.81134 47.9206 6.16306 48.6852 5.69445C49.4499 5.22588 50.3335 4.99155 51.3361 4.99155C52.3315 4.99155 53.1965 5.20521 53.9311 5.6325C54.6657 6.05978 55.2355 6.65745 55.6403 7.42556C56.0452 8.19361 56.2476 9.09804 56.2476 10.1387V10.8885L48.1727 10.9058ZM48.213 9.55928H54.2511C54.2511 8.68599 53.9875 7.98613 53.4604 7.45963C52.9333 6.93313 52.2283 6.66987 51.3454 6.66987C50.6796 6.66987 50.1088 6.81667 49.6332 7.11026C49.1576 7.40386 48.7927 7.83097 48.5385 8.3916C48.3815 8.73786 48.273 9.12707 48.213 9.55928Z" fill="#111113"/>
<path id="Vector_6" fill-rule="evenodd" clip-rule="evenodd" d="M60.1916 6.66986C60.3574 6.16494 60.5554 5.93381 60.9533 5.61405C61.4898 5.18288 62.1256 5.07638 62.9449 5.07638C63.1199 5.07638 63.8043 5.15299 64 5.202V7.04464H63.1101C62.1642 7.04464 61.4148 7.31848 60.8618 7.86622C60.3087 8.41397 60.0322 9.19118 60.0322 10.1979V15.7341H58.0383V5.29515H60.0203V6.66986H60.1916Z" fill="#111113"/>
</g>
</svg>
