<svg preserveAspectRatio="none" width="100%" height="100%" overflow="visible" style="display: block;" viewBox="0 0 24 24" fill="none" xmlns="http://www.w3.org/2000/svg">
<g id="Brand Icon">
<path id="Vector" fill-rule="evenodd" clip-rule="evenodd" d="M7.67046 15.0241C8.02246 14.6722 8.12775 14.1428 7.93723 13.6828C7.74671 13.223 7.29797 12.923 6.80018 12.923H0V11.077H9.23077C10.2504 11.077 11.0769 10.2504 11.0769 9.23079V0H12.9231V6.80016C12.9231 7.29796 13.223 7.74672 13.6828 7.93725C14.1428 8.12771 14.6721 8.02244 15.0241 7.67042C17.057 5.63761 19.8326 2.86202 19.8326 2.86202L21.138 4.16741C21.138 4.16741 18.3624 6.94306 16.3295 8.97588C15.9775 9.32784 15.8722 9.85725 16.0628 10.3172C16.2533 10.777 16.702 11.077 17.1998 11.077H24V12.923H14.7692C13.7496 12.923 12.9231 13.7496 12.9231 14.7692V24H11.0769V17.1998C11.0769 16.702 10.777 16.2533 10.3172 16.0628C9.85723 15.8723 9.32788 15.9776 8.97588 16.3296C6.94302 18.3624 4.16745 21.138 4.16745 21.138L2.86203 19.8326C2.86203 19.8326 5.6376 17.0569 7.67046 15.0241Z" fill="var(--fill-0, #1B9847)"/>
</g>
</svg>
