<svg width="80" height="80" viewBox="0 0 80 80" fill="none" xmlns="http://www.w3.org/2000/svg">
<path d="M0 38.4C0 24.9587 0 18.2381 2.61584 13.1042C4.9168 8.58834 8.58834 4.9168 13.1042 2.61584C18.2381 0 24.9587 0 38.4 0H41.6C55.0413 0 61.7619 0 66.8958 2.61584C71.4117 4.9168 75.0832 8.58834 77.3842 13.1042C80 18.2381 80 24.9587 80 38.4V41.6C80 55.0413 80 61.7619 77.3842 66.8958C75.0832 71.4117 71.4117 75.0832 66.8958 77.3842C61.7619 80 55.0413 80 41.6 80H38.4C24.9587 80 18.2381 80 13.1042 77.3842C8.58834 75.0832 4.9168 71.4117 2.61584 66.8958C0 61.7619 0 55.0413 0 41.6V38.4Z" fill="#1B9847"/>
<path fill-rule="evenodd" clip-rule="evenodd" d="M37.97 23.1111H25.2222V58.9998H35.1281V51.4937H37.97C46.0487 51.4937 52.6665 45.1772 52.6665 37.3023C52.6665 29.4275 46.0487 23.1111 37.97 23.1111ZM35.1281 41.8765V32.7283H37.97C40.6537 32.7283 42.7606 34.8133 42.7606 37.3023C42.7606 39.7913 40.6537 41.8765 37.97 41.8765H35.1281Z" fill="#24292E"/>
<path fill-rule="evenodd" clip-rule="evenodd" d="M28.3887 22.0557H40.0809C47.6146 22.0557 53.7219 27.9368 53.7219 35.1914C53.7219 42.4461 47.6146 48.3272 40.0809 48.3272H36.1835V55.8333H28.3887V22.0557ZM36.1835 40.821H40.0809C43.3096 40.821 45.9271 38.3006 45.9271 35.1914C45.9271 32.0822 43.3096 29.5618 40.0809 29.5618H36.1835V40.821Z" fill="white"/>
<path fill-rule="evenodd" clip-rule="evenodd" d="M27.3335 21H40.0813C48.1601 21 54.7778 27.3164 54.7778 35.1913C54.7778 43.0661 48.1601 49.3826 40.0813 49.3826H37.2394V56.8887H27.3335V21ZM29.4446 23.1111V54.7776H35.1283V47.2715H40.0813C47.07 47.2715 52.6667 41.8258 52.6667 35.1913C52.6667 28.5568 47.07 23.1111 40.0813 23.1111H29.4446ZM35.1283 28.5061H40.0813C43.8551 28.5061 46.983 31.462 46.983 35.1913C46.983 38.9206 43.8551 41.8765 40.0813 41.8765H35.1283V28.5061ZM37.2394 30.6172V39.7654H40.0813C42.765 39.7654 44.8719 37.6802 44.8719 35.1913C44.8719 32.7023 42.765 30.6172 40.0813 30.6172H37.2394Z" fill="#24292E"/>
</svg>
