<svg width="80" height="80" viewBox="0 0 80 80" fill="none" xmlns="http://www.w3.org/2000/svg">
<path d="M0 38.4C0 24.9587 0 18.2381 2.61584 13.1042C4.9168 8.58834 8.58834 4.9168 13.1042 2.61584C18.2381 0 24.9587 0 38.4 0H41.6C55.0413 0 61.7619 0 66.8958 2.61584C71.4117 4.9168 75.0832 8.58834 77.3842 13.1042C80 18.2381 80 24.9587 80 38.4V41.6C80 55.0413 80 61.7619 77.3842 66.8958C75.0832 71.4117 71.4117 75.0832 66.8958 77.3842C61.7619 80 55.0413 80 41.6 80H38.4C24.9587 80 18.2381 80 13.1042 77.3842C8.58834 75.0832 4.9168 71.4117 2.61584 66.8958C0 61.7619 0 55.0413 0 41.6V38.4Z" fill="#DA552F"/>
<path d="M42.4852 40H31.9176V28.6H42.4852C45.5749 28.6 48.0825 31.1536 48.0825 34.3C48.0825 37.4464 45.5749 40 42.4852 40ZM42.4852 21H24.4546V59H31.9176V47.6H42.4852C49.6945 47.6 55.5455 41.6416 55.5455 34.3C55.5455 26.9584 49.7094 21 42.4852 21Z" fill="white"/>
</svg>
