<svg width="40" height="40" viewBox="0 0 40 40" fill="none" xmlns="http://www.w3.org/2000/svg">
<g clip-path="url(#clip0_322_6933)">
<path fill-rule="evenodd" clip-rule="evenodd" d="M20.1184 1C15.3703 1.00245 10.7779 2.6736 7.16242 5.71464C3.5469 8.75568 1.144 12.9683 0.383386 17.5993C-0.37723 22.2302 0.554027 26.9775 3.01066 30.9922C5.46729 35.007 9.28909 38.0274 13.7927 39.5135C14.7862 39.6967 15.1605 39.0848 15.1605 38.5645C15.1605 38.0441 15.1406 36.5355 15.134 34.8862C9.57002 36.0807 8.39431 32.553 8.39431 32.553C7.48685 30.2623 6.17534 29.6601 6.17534 29.6601C4.36043 28.4362 6.31114 28.4591 6.31114 28.4591C8.32145 28.5999 9.37795 30.4979 9.37795 30.4979C11.1597 33.5183 14.0576 32.6446 15.1969 32.1341C15.3758 30.8546 15.8957 29.9841 16.4687 29.49C12.0241 28.9925 7.35437 27.2974 7.35437 19.725C7.32683 17.7611 8.06436 15.8619 9.41437 14.4203C9.20904 13.9229 8.52347 11.9136 9.60976 9.1844C9.60976 9.1844 11.2889 8.65427 15.1108 11.2101C18.389 10.3242 21.8478 10.3242 25.126 11.2101C28.9446 8.65427 30.6204 9.1844 30.6204 9.1844C31.71 11.9071 31.0244 13.9164 30.8191 14.4203C32.1734 15.8621 32.9124 17.7646 32.8824 19.7315C32.8824 27.3203 28.2027 28.9925 23.7515 29.4801C24.4669 30.0954 25.1061 31.2964 25.1061 33.142C25.1061 35.7862 25.0829 37.9132 25.0829 38.5645C25.0829 39.0913 25.4439 39.7065 26.4573 39.5135C30.9614 38.0273 34.7836 35.0063 37.2402 30.9908C39.6968 26.9754 40.6276 22.2274 39.8661 17.596C39.1046 12.9647 36.7005 8.75199 33.0838 5.71147C29.4671 2.67095 24.8736 1.0009 20.125 1H20.1184Z" fill="#191717"/>
<path d="M7.69081 29.3752C7.64776 29.4734 7.48879 29.5029 7.35962 29.4341C7.23046 29.3654 7.13442 29.2378 7.18079 29.1363C7.22716 29.0349 7.38281 29.0087 7.51198 29.0774C7.64114 29.1462 7.74049 29.2771 7.69081 29.3752Z" fill="#191717"/>
<path d="M8.50291 30.2686C8.43432 30.3028 8.35585 30.3123 8.28094 30.2956C8.20602 30.2789 8.13932 30.237 8.09224 30.177C7.96307 30.0396 7.93656 29.8498 8.03592 29.7647C8.13528 29.6796 8.31413 29.7189 8.4433 29.8563C8.57246 29.9938 8.60226 30.1835 8.50291 30.2686Z" fill="#191717"/>
<path d="M9.29163 31.4041C9.16909 31.4892 8.96043 31.4041 8.84452 31.2339C8.81246 31.2034 8.78698 31.1668 8.76956 31.1263C8.75215 31.0858 8.74316 31.0423 8.74316 30.9983C8.74316 30.9543 8.75215 30.9108 8.76956 30.8703C8.78698 30.8298 8.81246 30.7932 8.84452 30.7627C8.96706 30.6809 9.17572 30.7627 9.29163 30.9296C9.40755 31.0965 9.41086 31.319 9.29163 31.4041V31.4041Z" fill="#191717"/>
<path d="M10.3606 32.5035C10.2513 32.6246 10.0294 32.5919 9.84723 32.4282C9.66508 32.2646 9.62201 32.0421 9.7313 31.9243C9.84059 31.8065 10.0625 31.8392 10.2513 31.9996C10.44 32.1599 10.4765 32.3857 10.3606 32.5035V32.5035Z" fill="#191717"/>
<path d="M11.8602 33.1452C11.8105 33.299 11.5853 33.3677 11.3601 33.3023C11.1349 33.2368 10.9858 33.0536 11.0289 32.8965C11.0719 32.7394 11.3005 32.6674 11.529 32.7394C11.7575 32.8114 11.9032 32.9849 11.8602 33.1452Z" fill="#191717"/>
<path d="M13.4974 33.2562C13.4974 33.4166 13.312 33.554 13.0735 33.5573C12.835 33.5606 12.6396 33.4297 12.6396 33.2693C12.6396 33.109 12.8251 32.9715 13.0636 32.9683C13.302 32.965 13.4974 33.0926 13.4974 33.2562Z" fill="#191717"/>
<path d="M15.0205 33.0045C15.0503 33.1648 14.8847 33.3317 14.6463 33.371C14.4078 33.4103 14.1992 33.3154 14.1694 33.1583C14.1396 33.0012 14.3118 32.831 14.5436 32.7885C14.7754 32.746 14.9907 32.8441 15.0205 33.0045Z" fill="#191717"/>
</g>
<defs>
<clipPath id="clip0_322_6933">
<rect width="40" height="40" fill="white"/>
</clipPath>
</defs>
</svg>
