<svg width="40" height="40" viewBox="0 0 40 40" fill="none" xmlns="http://www.w3.org/2000/svg">
<g clip-path="url(#clip0_322_7002)">
<path d="M4.39973 8.84003C2.35973 8.96003 0.759727 10.76 0.759727 12.76L0.719727 27C0.719727 29.24 2.43973 31.2 4.23973 31.24L4.39973 31.28L14.7997 14.76L4.39973 8.84003Z" fill="#019C5A"/>
<path d="M35.24 5.84003H8.19996C5.87996 5.84003 3.95996 7.76003 3.95996 10.16V30C4.07996 32.16 5.83996 34.16 8.19996 34.16H35.32C37.48 34.16 39.32 32.36 39.32 30.08V10.16C39.32 8.00003 37.56 5.84003 35.24 5.84003Z" fill="#1EC970"/>
<path d="M27.6645 8.84802H4.46445C4.24354 8.84802 4.06445 9.02422 4.06445 9.24157V30.8865C4.06445 31.1038 4.24354 31.28 4.46445 31.28H27.6645C27.8854 31.28 28.0645 31.1038 28.0645 30.8865V9.24157C28.0645 9.02422 27.8854 8.84802 27.6645 8.84802Z" fill="url(#paint0_linear_322_7002)"/>
<path d="M35.2 24.2L31.88 24.16V15.52C31.88 14.88 31.36 14.2 30.6 14.2C29.84 14.2 29.28 14.84 29.28 15.52V24.16H16.4C15.76 24.16 15.08 24.68 15.04 25.4C15.04 26.16 15.64 26.76 16.36 26.76H29.28V29.88C29.28 30.56 29.84 31.16 30.6 31.16C31.32 31.16 31.88 30.6 31.88 29.92V26.76H35.24C35.84 26.76 36.44 26.2 36.44 25.44C36.44 24.84 35.88 24.2 35.2 24.2Z" fill="white"/>
</g>
<defs>
<linearGradient id="paint0_linear_322_7002" x1="4.06445" y1="8.84802" x2="28.0645" y2="8.84802" gradientUnits="userSpaceOnUse">
<stop stop-color="#6BC0FF"/>
<stop offset="1" stop-color="#1EC970" stop-opacity="0.5"/>
</linearGradient>
<clipPath id="clip0_322_7002">
<rect width="40" height="40" fill="white"/>
</clipPath>
</defs>
</svg>
