<svg width="40" height="40" viewBox="0 0 40 40" fill="none" xmlns="http://www.w3.org/2000/svg">
<mask id="mask0_322_6945" style="mask-type:alpha" maskUnits="userSpaceOnUse" x="6" y="1" width="28" height="38">
<path d="M27.1532 38.3334H12.8337C10.9704 38.3334 10.0388 38.3333 9.2998 38.0408C8.2301 37.6173 7.38312 36.7702 6.9596 35.7004C6.66699 34.9615 6.66699 34.0298 6.66699 32.1667V7.83335C6.66699 5.97012 6.66699 5.03852 6.9596 4.2995C7.38312 3.22979 8.2301 2.38281 9.2998 1.95928C10.0388 1.66669 10.9704 1.66669 12.8337 1.66669H20.8337L32.2489 13.082C32.5949 13.428 32.768 13.601 32.901 13.7967C33.093 14.0794 33.2251 14.3986 33.2889 14.7344C33.333 14.9668 33.333 15.2139 33.3326 15.708C33.3253 25.8994 33.3207 25.9998 33.3205 32.1596C33.3205 34.0275 33.3205 34.9617 33.0278 35.7006C32.6043 36.7704 31.7574 37.6171 30.6876 38.0408C29.9487 38.3333 29.0168 38.3334 27.1532 38.3334Z" fill="#3186FF"/>
</mask>
<g mask="url(#mask0_322_6945)">
<path d="M33.3212 38.3334H6.66699V1.66669L20.8337 1.66669L33.3335 14.1667L33.3212 38.3334Z" fill="#3186FF"/>
<g filter="url(#filter0_f_322_6945)">
<path d="M8.95898 40H31.0423V14.6307V4.16669H8.95898V40Z" fill="url(#paint0_linear_322_6945)"/>
</g>
</g>
<path d="M32.2903 13.124C31.7682 12.7322 31.1195 12.5 30.4163 12.5H23.4997C22.027 12.5 20.833 11.3061 20.833 9.83339V1.66669L32.2903 13.124Z" fill="#76BBFF"/>
<path d="M25.4173 23.75H14.584C13.8936 23.75 13.334 24.3096 13.334 25C13.334 25.6904 13.8936 26.25 14.584 26.25H25.4173C26.1077 26.25 26.6673 25.6904 26.6673 25C26.6673 24.3096 26.1077 23.75 25.4173 23.75Z" fill="white"/>
<path d="M22.084 29.7917H14.584C13.8936 29.7917 13.334 30.3513 13.334 31.0417C13.334 31.732 13.8936 32.2917 14.584 32.2917H22.084C22.7743 32.2917 23.334 31.732 23.334 31.0417C23.334 30.3513 22.7743 29.7917 22.084 29.7917Z" fill="white"/>
<defs>
<filter id="filter0_f_322_6945" x="6.45898" y="1.66669" width="27.083" height="40.8333" filterUnits="userSpaceOnUse" color-interpolation-filters="sRGB">
<feFlood flood-opacity="0" result="BackgroundImageFix"/>
<feBlend mode="normal" in="SourceGraphic" in2="BackgroundImageFix" result="shape"/>
<feGaussianBlur stdDeviation="1.25" result="effect1_foregroundBlur_322_6945"/>
</filter>
<linearGradient id="paint0_linear_322_6945" x1="20.0007" y1="12.3508" x2="11.3782" y2="35.6954" gradientUnits="userSpaceOnUse">
<stop offset="0.33" stop-color="#3186FF"/>
<stop offset="1" stop-color="#A9A8FF"/>
</linearGradient>
</defs>
</svg>
