<svg width="40" height="40" viewBox="0 0 40 40" fill="none" xmlns="http://www.w3.org/2000/svg">
<path d="M6.74219 8.91666C6.74219 5.60291 9.42844 2.91666 12.7422 2.91666H27.4089C30.7226 2.91666 33.4089 5.60291 33.4089 8.91666V15.25C33.4089 18.5637 30.7226 21.25 27.4089 21.25H12.7422C9.42844 21.25 6.74219 18.5637 6.74219 15.25V8.91666Z" fill="#BBE2FF"/>
<path d="M4.21416 11.54C3.78728 8.29582 6.3127 5.41666 9.58457 5.41666H30.5658C33.8379 5.41666 36.3631 8.29582 35.9362 11.54L34.6585 21.25L35.9362 30.96C36.3631 34.2042 33.8379 37.0833 30.5658 37.0833H9.58457C6.31249 37.0833 3.78728 34.2042 4.21416 30.96L5.49186 21.25L4.21416 11.54Z" fill="#3C90FF"/>
<mask id="mask0_322_7007" style="mask-type:alpha" maskUnits="userSpaceOnUse" x="4" y="5" width="32" height="33">
<path d="M4.21416 11.54C3.78728 8.29582 6.3127 5.41666 9.58457 5.41666H30.5658C33.8379 5.41666 36.3631 8.29582 35.9362 11.54L34.6585 21.25L35.9362 30.96C36.3631 34.2042 33.8379 37.0833 30.5658 37.0833H9.58457C6.31249 37.0833 3.78728 34.2042 4.21416 30.96L5.49186 21.25L4.21416 11.54Z" fill="#3C90FF"/>
</mask>
<g mask="url(#mask0_322_7007)">
<path d="M2.7832 37.0833H37.3665V21.25H2.7832V37.0833Z" fill="url(#paint0_linear_322_7007)"/>
</g>
<mask id="mask1_322_7007" style="mask-type:alpha" maskUnits="userSpaceOnUse" x="4" y="5" width="32" height="33">
<path d="M4.21416 11.54C3.78728 8.29582 6.3127 5.41666 9.58457 5.41666H30.5658C33.8379 5.41666 36.3631 8.29582 35.9362 11.54L34.6585 21.25L35.9362 30.96C36.3631 34.2042 33.8379 37.0833 30.5658 37.0833H9.58457C6.31249 37.0833 3.78728 34.2042 4.21416 30.96L5.49186 21.25L4.21416 11.54Z" fill="#3186FF"/>
</mask>
<g mask="url(#mask1_322_7007)">
<g filter="url(#filter0_f_322_7007)">
<path d="M6.74219 6.91666C6.74219 4.70749 8.53302 2.91666 10.7422 2.91666H29.4089C31.618 2.91666 33.4089 4.70749 33.4089 6.91666V21.25H6.74219V6.91666Z" fill="url(#paint1_linear_322_7007)"/>
</g>
</g>
<path d="M15.7732 29.0283C14.9007 29.0283 14.1523 28.8864 13.528 28.6027C12.9037 28.3189 12.3752 27.9394 11.9426 27.4641C11.5169 26.9816 11.2154 26.5099 11.038 26.0489C10.8607 25.5879 10.7898 25.3077 10.8253 25.2083C10.864 25.1061 10.94 25.0224 11.038 24.9741L12.2193 24.506C12.3184 24.4564 12.4177 24.4493 12.5172 24.4847C12.6164 24.5131 12.7334 24.6762 12.8682 24.9741C13.0102 25.272 13.2088 25.5877 13.4641 25.9212C13.7195 26.2417 14.0383 26.5061 14.4005 26.6979C14.7625 26.8823 15.2093 26.9745 15.7411 26.9745C16.5995 26.9745 17.2805 26.7263 17.7843 26.2297C18.295 25.7332 18.5503 25.1019 18.5503 24.3358C18.5503 23.5058 18.2807 22.8673 17.7416 22.4204C17.2025 21.9663 16.4896 21.7393 15.6028 21.7393H14.4857C14.3832 21.7411 14.284 21.703 14.2091 21.6331C14.1382 21.555 14.1027 21.4663 14.1026 21.367V20.2285C14.1026 20.122 14.138 20.0333 14.2089 19.9624C14.2446 19.9251 14.2876 19.8954 14.3352 19.8753C14.3828 19.8552 14.434 19.845 14.4857 19.8454H15.4539C16.2484 19.8454 16.8869 19.629 17.3693 19.1962C17.8516 18.7634 18.0928 18.203 18.0928 17.5149C18.0928 16.8341 17.8764 16.2844 17.4436 15.8658C17.0109 15.4472 16.415 15.2379 15.6561 15.2379C15.2305 15.2379 14.8616 15.3088 14.5495 15.4508C14.2408 15.59 13.9652 15.7931 13.7407 16.0466C13.5189 16.2881 13.3228 16.552 13.1555 16.8341C12.9925 17.1037 12.8612 17.2527 12.7618 17.281C12.6626 17.3022 12.5668 17.2845 12.4745 17.2279L11.3572 16.6852C11.265 16.6354 11.2047 16.5574 11.1764 16.451C11.148 16.3446 11.2332 16.0963 11.4318 15.7062C11.6375 15.309 11.9495 14.9046 12.368 14.4931C12.7879 14.078 13.2874 13.7522 13.8366 13.5354C14.397 13.3083 15.0496 13.1948 15.7945 13.1949C17.1778 13.1949 18.2738 13.5602 19.0824 14.2908C19.8911 15.0144 20.2955 15.9721 20.2955 17.1639C20.2955 17.9868 20.0969 18.6997 19.6997 19.3027C19.3094 19.9054 18.7561 20.3311 18.0397 20.5797V20.6222C18.9051 20.8775 19.5861 21.3456 20.0826 22.0266C20.5864 22.7006 20.8382 23.5058 20.838 24.442C20.838 25.7829 20.3698 26.8824 19.4334 27.7408C18.4973 28.5991 17.2774 29.0283 15.7732 29.0283ZM26.4503 28.7835C26.3298 28.7835 26.2233 28.7374 26.1309 28.6452C26.047 28.5561 26.0013 28.4377 26.0034 28.3154V16.4829L23.6093 18.2066C23.524 18.2705 23.4246 18.2918 23.3111 18.2706C23.2089 18.2518 23.1176 18.1947 23.0559 18.111L22.3643 17.1318C22.302 17.0458 22.2753 16.9391 22.2897 16.8339C22.3109 16.7206 22.3677 16.632 22.4599 16.5681L26.7055 13.5354C26.7411 13.507 26.7801 13.4858 26.8226 13.4716C26.8652 13.4504 26.9149 13.4397 26.9716 13.4397H27.8655C27.9861 13.4397 28.0818 13.4823 28.1528 13.5674C28.2309 13.6452 28.2699 13.7445 28.2699 13.8654V28.3154C28.2699 28.4431 28.2238 28.5531 28.1316 28.6452C28.0914 28.6899 28.0421 28.7254 27.987 28.7493C27.9319 28.7731 27.8722 28.7848 27.8122 28.7835H26.4503Z" fill="white"/>
<defs>
<filter id="filter0_f_322_7007" x="4.24219" y="0.416656" width="31.667" height="23.3333" filterUnits="userSpaceOnUse" color-interpolation-filters="sRGB">
<feFlood flood-opacity="0" result="BackgroundImageFix"/>
<feBlend mode="normal" in="SourceGraphic" in2="BackgroundImageFix" result="shape"/>
<feGaussianBlur stdDeviation="1.25" result="effect1_foregroundBlur_322_7007"/>
</filter>
<linearGradient id="paint0_linear_322_7007" x1="20.0749" y1="21.25" x2="20.0749" y2="37.0833" gradientUnits="userSpaceOnUse">
<stop stop-color="#4FA0FF"/>
<stop offset="1" stop-color="#3186FF"/>
</linearGradient>
<linearGradient id="paint1_linear_322_7007" x1="18.6297" y1="5.78124" x2="18.6297" y2="21.3312" gradientUnits="userSpaceOnUse">
<stop stop-color="#A9A8FF"/>
<stop offset="0.8" stop-color="#3C90FF"/>
</linearGradient>
</defs>
</svg>
