<svg width="40" height="40" viewBox="0 0 40 40" fill="none" xmlns="http://www.w3.org/2000/svg">
<path d="M3.74471 23.8413C3.66972 23.5246 4.04744 23.3247 4.27795 23.5552L16.4455 35.72C16.676 35.9505 16.476 36.3282 16.1594 36.2532C13.1418 35.5399 10.3823 34.0008 8.18967 31.8082C5.99709 29.6157 4.45801 26.8561 3.74471 23.8385V23.8413ZM3.33644 18.9642C3.33387 19.0108 3.34121 19.0575 3.35797 19.101C3.37472 19.1446 3.40051 19.1841 3.43364 19.217L20.7837 36.567C20.8166 36.6002 20.8561 36.626 20.8997 36.6427C20.9432 36.6595 20.9898 36.6668 21.0364 36.6643C21.828 36.6143 22.6029 36.5115 23.3583 36.356C23.4156 36.3435 23.4686 36.3158 23.5114 36.2757C23.5543 36.2356 23.5855 36.1847 23.6017 36.1283C23.6179 36.0719 23.6186 36.0122 23.6036 35.9554C23.5886 35.8987 23.5586 35.8471 23.5166 35.8061L4.19741 16.4841C4.15639 16.4421 4.10477 16.4121 4.04803 16.3971C3.9913 16.3821 3.93156 16.3828 3.87517 16.399C3.81878 16.4152 3.76784 16.4464 3.72775 16.4893C3.68767 16.5321 3.65993 16.585 3.6475 16.6424C3.4914 17.4082 3.38931 18.1841 3.34199 18.9642H3.33644ZM4.73899 13.2374C4.71229 13.2984 4.70464 13.366 4.71703 13.4314C4.72942 13.4968 4.76127 13.557 4.80843 13.604L26.3967 35.1923C26.4435 35.2398 26.5037 35.2718 26.5692 35.2842C26.6347 35.2967 26.7024 35.2888 26.7633 35.2617C27.3605 34.9951 27.9354 34.6979 28.4936 34.3674C28.5364 34.3416 28.5726 34.3064 28.5997 34.2645C28.6268 34.2226 28.6439 34.175 28.6498 34.1254C28.6557 34.0759 28.6502 34.0256 28.6337 33.9785C28.6172 33.9314 28.5902 33.8887 28.5547 33.8536L6.14711 11.446C6.11203 11.4105 6.0693 11.3834 6.02219 11.367C5.97508 11.3505 5.92482 11.345 5.87526 11.3509C5.82569 11.3568 5.77813 11.3739 5.7362 11.401C5.69427 11.428 5.65907 11.4643 5.6333 11.5071C5.30279 12.0625 5.00562 12.6402 4.73899 13.2374ZM7.55522 9.36019C7.49508 9.30103 7.46008 9.22095 7.45749 9.13663C7.4549 9.0523 7.48493 8.97023 7.54133 8.90749C9.05284 7.21324 10.8943 5.8454 12.953 4.88775C15.0116 3.93011 17.2441 3.40282 19.5137 3.33818C21.7833 3.27355 24.0421 3.67293 26.152 4.51186C28.2618 5.35079 30.1781 6.61161 31.7836 8.21709C33.3891 9.82257 34.6499 11.7389 35.4888 13.8487C36.3278 15.9586 36.7271 18.2174 36.6625 20.487C36.5979 22.7566 36.0706 24.9891 35.1129 27.0477C34.1553 29.1064 32.7875 30.9478 31.0932 32.4594C31.0305 32.5158 30.9484 32.5458 30.8641 32.5432C30.7797 32.5406 30.6997 32.5056 30.6405 32.4455L7.55522 9.36019Z" fill="#8299FF"/>
</svg>
