<svg width="40" height="40" viewBox="0 0 40 40" fill="none" xmlns="http://www.w3.org/2000/svg">
<path d="M32.9561 4.7998H7.04394C6.44876 4.7998 5.87796 5.03624 5.4571 5.4571C5.03624 5.87796 4.7998 6.44876 4.7998 7.04394V32.9561C4.7998 33.5512 5.03624 34.122 5.4571 34.5429C5.87796 34.9638 6.44876 35.2002 7.04394 35.2002H32.9561C33.5512 35.2002 34.122 34.9638 34.5429 34.5429C34.9638 34.122 35.2002 33.5512 35.2002 32.9561V7.04394C35.2002 6.44876 34.9638 5.87796 34.5429 5.4571C34.122 5.03624 33.5512 4.7998 32.9561 4.7998Z" fill="#0A66C2"/>
<path d="M13.8607 30.6974H9.29012V16.1791H13.8607V30.6974ZM11.5723 14.1672C11.0538 14.1643 10.5478 14.0078 10.1182 13.7176C9.68856 13.4274 9.35452 13.0165 9.15823 12.5366C8.96194 12.0567 8.9122 11.5294 9.01529 11.0213C9.11837 10.5132 9.36967 10.047 9.73745 9.68159C10.1052 9.31616 10.573 9.06787 11.0818 8.96804C11.5906 8.86822 12.1175 8.92135 12.5961 9.12071C13.0747 9.32008 13.4835 9.65675 13.771 10.0882C14.0584 10.5197 14.2116 11.0267 14.2112 11.5452C14.2161 11.8923 14.151 12.2368 14.0199 12.5583C13.8888 12.8797 13.6944 13.1715 13.4481 13.4161C13.2018 13.6608 12.9088 13.8534 12.5866 13.9824C12.2643 14.1115 11.9193 14.1743 11.5723 14.1672ZM30.7076 30.7101H26.1391V22.7785C26.1391 20.4394 25.1448 19.7174 23.8612 19.7174C22.5058 19.7174 21.1758 20.7392 21.1758 22.8376V30.7101H16.6052V16.1897H21.0006V18.2016H21.0597C21.5009 17.3086 23.0463 15.7822 25.4044 15.7822C27.9547 15.7822 30.7097 17.2959 30.7097 21.7293L30.7076 30.7101Z" fill="white"/>
</svg>
