<svg width="40" height="40" viewBox="0 0 40 40" fill="none" xmlns="http://www.w3.org/2000/svg">
<g clip-path="url(#clip0_322_6962)">
<path d="M14.574 0.906166C8.3307 1.36952 3.02316 1.79564 2.77361 1.84554C2.07394 1.97068 1.43745 2.44671 1.13816 3.07322L0.875977 3.62449L0.901247 16.763L0.938362 29.9016L1.33795 30.7158C1.56301 31.1665 3.08633 33.271 4.74706 35.4373C8.0314 39.708 8.26831 39.9464 9.51682 40.0715C9.87929 40.1088 12.6014 39.9836 15.5485 39.8086C18.5083 39.6209 23.2528 39.3326 26.1004 39.1702C38.2625 38.4296 37.6379 38.4922 38.3367 37.891C39.2109 37.1647 39.1486 38.3544 39.1857 22.3858C39.2109 8.84649 39.1983 7.9578 38.9985 7.54435C38.7616 7.081 38.3367 6.75547 32.7923 2.84749C29.0839 0.242427 28.8217 0.10461 27.1602 0.0792642C26.4739 0.0547106 20.8047 0.430143 14.574 0.906166ZM28.6093 2.62175C29.1336 2.85937 32.9676 5.53967 33.5291 6.05371C33.6791 6.2042 33.7289 6.32935 33.6539 6.40459C33.4793 6.55508 9.75294 7.97048 9.06669 7.86989C8.75477 7.81999 8.29279 7.63227 8.03062 7.45644C6.94399 6.71745 4.24719 4.5005 4.24719 4.33813C4.24719 3.912 4.15953 3.912 14.7367 3.14847C16.7599 3.01065 20.0814 2.76036 22.1046 2.5972C26.4866 2.24632 27.7983 2.25899 28.6093 2.62175ZM36.1517 9.473C36.3262 9.64804 36.4762 9.98625 36.526 10.3118C36.5631 10.6128 36.5884 16.2237 36.5631 22.7613C36.526 33.983 36.5133 34.6848 36.3009 35.0103C36.1761 35.2107 35.9266 35.4238 35.7386 35.4864C35.2151 35.6994 10.3531 37.1148 9.84139 36.9643C9.60448 36.9018 9.27912 36.7014 9.1046 36.5263L8.80452 36.2008L8.7674 24.1022C8.74213 15.6106 8.7674 11.8531 8.86769 11.5149C8.94271 11.2646 9.12987 10.9636 9.29255 10.8638C9.51761 10.7134 10.9912 10.5882 16.061 10.288C19.6202 10.0876 25.1267 9.74943 28.2863 9.56171C35.8018 9.09757 35.7773 9.09757 36.1517 9.473Z" fill="black"/>
<path d="M29.4695 13.6185C28.1207 13.7064 26.9219 13.8316 26.7845 13.9068C26.3723 14.1199 26.1227 14.4707 26.073 14.8715C26.0359 15.285 26.1606 15.3349 27.5086 15.498L28.0954 15.5733V20.9212C28.0954 24.1021 28.0456 26.2066 27.9832 26.144C27.9209 26.0688 26.148 23.3639 24.0371 20.1323C21.9271 16.8889 20.1787 14.2205 20.1534 14.1959C20.1281 14.1706 18.7549 14.2458 17.1068 14.3591C15.0836 14.4969 13.9725 14.622 13.7474 14.7472C13.3849 14.9349 12.9854 15.5986 12.9854 16.0374C12.9854 16.3004 13.46 16.4382 14.4589 16.4382H14.9833V31.8183L14.1344 32.0812C13.4726 32.2816 13.2475 32.4068 13.1354 32.6571C12.9356 33.0832 12.9482 33.4713 13.148 33.4713C13.223 33.4713 14.6342 33.3834 16.2571 33.2836C19.4664 33.0958 19.8281 33.0079 20.1653 32.3442C20.2656 32.1438 20.3524 31.9307 20.3524 31.8682C20.3524 31.8183 19.9157 31.6678 19.3906 31.5426C18.8536 31.4175 18.3166 31.2923 18.2044 31.267C17.992 31.2044 17.9794 30.8163 17.9794 25.4304V19.6563L21.7754 25.6308C25.7587 31.8927 26.2585 32.6072 26.8706 32.92C27.6326 33.3208 29.5682 33.0452 30.5419 32.4068L30.8419 32.219L30.8672 23.6776L30.9043 15.1234L31.5661 14.9983C32.3526 14.8478 32.7151 14.485 32.7151 13.8585C32.7151 13.4577 32.6898 13.4324 32.3155 13.445C32.092 13.4553 30.8056 13.5306 29.4695 13.6185Z" fill="black"/>
</g>
<defs>
<clipPath id="clip0_322_6962">
<rect width="40" height="40" fill="white"/>
</clipPath>
</defs>
</svg>
