<svg width="20" height="20" viewBox="0 0 20 20" fill="none" xmlns="http://www.w3.org/2000/svg">
<g clip-path="url(#clip0_502_1681)">
<path fill-rule="evenodd" clip-rule="evenodd" d="M14.0033 1.63086L20.02 5.05169V5.12419L13.9417 8.50836L13.9558 6.74419L13.2717 6.71919C12.3892 6.69586 11.9292 6.72086 11.3817 6.81086C10.495 6.95669 9.68333 7.29169 8.75917 7.93753L6.95417 9.19169C6.7175 9.35419 6.54167 9.47169 6.3875 9.57086L5.95833 9.83919L5.6275 10.0342L5.94833 10.2259L6.39 10.5075C6.78667 10.7692 7.365 11.1709 8.64083 12.0625C9.56583 12.7084 10.3767 13.0434 11.2633 13.1892L11.5133 13.2267C12.0917 13.3025 12.6592 13.305 13.8675 13.2542L13.8858 11.455L19.9025 14.8759V14.9484L13.8242 18.3334L13.8358 16.7817L13.3067 16.8C12.1517 16.835 11.5258 16.8017 10.6917 16.665C9.28 16.4317 7.975 15.8934 6.62417 14.9492L4.82583 13.6992C4.61898 13.5566 4.40921 13.4182 4.19667 13.2842L3.8075 13.0509C3.59732 12.9298 3.38621 12.8103 3.17417 12.6925C2.42333 12.275 0.469167 11.7634 0 11.7634V8.24003L0.116667 8.24336C0.586667 8.23753 2.54167 7.72503 3.29083 7.30669L4.1375 6.82336L4.5025 6.59503C4.85917 6.36169 5.39583 5.99003 6.74083 5.05086C8.09167 4.10669 9.39583 3.56753 10.8083 3.33503C11.7683 3.17669 12.4533 3.15753 13.9867 3.22003L14.0033 1.63086Z" fill="white"/>
</g>
<defs>
<clipPath id="clip0_502_1681">
<rect width="20" height="20" fill="white"/>
</clipPath>
</defs>
</svg>
