<svg width="40" height="40" viewBox="0 0 40 40" fill="none" xmlns="http://www.w3.org/2000/svg">
<g clip-path="url(#clip0_322_6979)">
<g clip-path="url(#clip1_322_6979)">
<path d="M28.3494 4.55547L4.18547 19.8721L2.10742 16.5937V13.7687C2.10742 12.7402 2.62824 11.7816 3.49115 11.2219L17.5375 2.10737C19.6775 0.718711 22.434 0.718437 24.5743 2.10682L28.3494 4.55547Z" fill="url(#paint0_linear_322_6979)"/>
<path d="M24.3577 1.97278C24.4303 2.01581 24.5024 2.06077 24.5739 2.10709L35.536 9.21786L8.35548 26.4467L4.18457 19.8666L24.1326 7.19792C26.0221 5.99786 26.1049 3.29839 24.3577 1.97278Z" fill="url(#paint1_linear_322_6979)"/>
<path d="M24.3577 1.97278C24.4303 2.01581 24.5024 2.06077 24.5739 2.10709L35.536 9.21786L8.35548 26.4467L4.18457 19.8666L24.1326 7.19792C26.0221 5.99786 26.1049 3.29839 24.3577 1.97278Z" fill="url(#paint2_linear_322_6979)"/>
<path d="M19.1997 29.7366L8.35547 26.447L31.4117 11.8318C33.3535 10.601 33.3486 7.76614 31.4024 6.54223L31.2985 6.47699L31.5975 6.66284L38.6145 11.2148C39.4777 11.7745 39.9985 12.7333 39.9985 13.7621V16.4961L19.1997 29.7366Z" fill="url(#paint3_linear_322_6979)"/>
<path d="M19.1997 29.7366L8.35547 26.447L31.4117 11.8318C33.3535 10.601 33.3486 7.76614 31.4024 6.54223L31.2985 6.47699L31.5975 6.66284L38.6145 11.2148C39.4777 11.7745 39.9985 12.7333 39.9985 13.7621V16.4961L19.1997 29.7366Z" fill="url(#paint4_linear_322_6979)"/>
<path d="M24.5743 2.10682C22.434 0.718437 19.6775 0.718711 17.5373 2.10737L3.49115 11.2219C2.62824 11.7816 2.10742 12.7402 2.10742 13.7687V13.9068C2.14141 14.9394 2.6847 15.8909 3.56241 16.4443L21.0275 27.4552L38.5368 16.461C39.4463 15.8901 39.9981 14.8917 39.9981 13.818V16.4964L39.9986 13.7621C39.9986 12.7334 39.4775 11.7748 38.6146 11.2148L24.5743 2.10682Z" fill="url(#paint5_radial_322_6979)"/>
<path d="M17.9486 38.9336H33.4182C37.0515 38.9336 39.9969 35.9883 39.9969 32.3549V13.818C39.9969 14.8917 39.4451 15.89 38.5359 16.461L15.5257 30.9089C14.2845 31.6885 13.5312 33.0511 13.5312 34.5168C13.5315 36.9562 15.509 38.9336 17.9486 38.9336Z" fill="url(#paint6_linear_322_6979)"/>
<path d="M17.9486 38.9336H33.4182C37.0515 38.9336 39.9969 35.9883 39.9969 32.3549V13.818C39.9969 14.8917 39.4451 15.89 38.5359 16.461L15.5257 30.9089C14.2845 31.6885 13.5312 33.0511 13.5312 34.5168C13.5315 36.9562 15.509 38.9336 17.9486 38.9336Z" fill="url(#paint7_radial_322_6979)"/>
<path d="M17.9486 38.9336H33.4182C37.0515 38.9336 39.9969 35.9883 39.9969 32.3549V13.818C39.9969 14.8917 39.4451 15.89 38.5359 16.461L15.5257 30.9089C14.2845 31.6885 13.5312 33.0511 13.5312 34.5168C13.5315 36.9562 15.509 38.9336 17.9486 38.9336Z" fill="url(#paint8_radial_322_6979)"/>
<path d="M24.238 38.9326H8.68321C5.04984 38.9326 2.10449 35.9872 2.10449 32.3538V13.8043C2.10449 14.8761 2.65436 15.8728 3.56086 16.4443L26.5483 30.9364C27.8067 31.7297 28.5698 33.1137 28.5698 34.6013C28.5696 36.9935 26.6302 38.9326 24.238 38.9326Z" fill="url(#paint9_radial_322_6979)"/>
<path d="M24.238 38.9326H8.68321C5.04984 38.9326 2.10449 35.9872 2.10449 32.3538V13.8043C2.10449 14.8761 2.65436 15.8728 3.56086 16.4443L26.5483 30.9364C27.8067 31.7297 28.5698 33.1137 28.5698 34.6013C28.5696 36.9935 26.6302 38.9326 24.238 38.9326Z" fill="url(#paint10_linear_322_6979)"/>
<path d="M3.42093 18.9308H13.4206C15.31 18.9308 16.8415 20.4623 16.8415 22.3517V32.3514C16.8415 34.2408 15.31 35.7723 13.4206 35.7723H3.42093C1.53147 35.7723 0 34.2408 0 32.3514V22.3517C0 20.4623 1.53147 18.9308 3.42093 18.9308Z" fill="url(#paint11_radial_322_6979)"/>
<path d="M3.42093 18.9308H13.4206C15.31 18.9308 16.8415 20.4623 16.8415 22.3517V32.3514C16.8415 34.2408 15.31 35.7723 13.4206 35.7723H3.42093C1.53147 35.7723 0 34.2408 0 32.3514V22.3517C0 20.4623 1.53147 18.9308 3.42093 18.9308Z" fill="url(#paint12_radial_322_6979)"/>
<path d="M8.37809 32.1935C6.98532 32.1935 5.84227 31.7576 4.94838 30.8865C4.0545 30.0153 3.60742 28.8783 3.60742 27.4757C3.60742 25.9944 4.06108 24.7965 4.96839 23.8815C5.87598 22.9668 7.06399 22.5096 8.53296 22.5096C9.92107 22.5096 11.0507 22.9473 11.9221 23.8229C12.7982 24.6984 13.2362 25.8529 13.2362 27.286C13.2362 28.7585 12.7823 29.9455 11.8749 30.8473C10.972 31.7447 9.80649 32.1935 8.37809 32.1935ZM8.41838 30.3443C9.1774 30.3443 9.7884 30.085 10.2511 29.5666C10.7138 29.0483 10.9452 28.3271 10.9452 27.4036C10.9452 26.4409 10.7204 25.6918 10.2714 25.1559C9.82212 24.62 9.22236 24.3522 8.47238 24.3522C7.69966 24.3522 7.07742 24.6288 6.60595 25.1819C6.1342 25.731 5.89846 26.4585 5.89846 27.3644C5.89846 28.2838 6.1342 29.0113 6.60595 29.5469C7.07742 30.0784 7.68157 30.3443 8.41838 30.3443Z" fill="white"/>
<path d="M8.37465 32.3231C6.98736 32.3231 5.84842 31.8758 4.95782 30.9808C4.0675 30.0858 3.62207 28.9178 3.62207 27.4771C3.62207 25.9555 4.07408 24.725 4.97811 23.7853C5.88213 22.8454 7.06575 22.3755 8.52897 22.3755C9.9116 22.3755 11.0371 22.8254 11.9052 23.7247C12.778 24.6244 13.2141 25.8102 13.2141 27.2824C13.2141 28.7947 12.7621 30.0143 11.8583 30.9405C10.9587 31.8623 9.79757 32.3231 8.37465 32.3231ZM8.41467 30.4238C9.17094 30.4238 9.77975 30.1573 10.2405 29.625C10.7016 29.0924 10.9318 28.3518 10.9318 27.4031C10.9318 26.4141 10.7082 25.6446 10.2608 25.0942C9.81319 24.5438 9.2159 24.2686 8.46867 24.2686C7.69868 24.2686 7.07891 24.5526 6.60908 25.1211C6.13925 25.6846 5.90434 26.4322 5.90434 27.3628C5.90434 28.3071 6.13925 29.0543 6.60908 29.6047C7.07891 30.1508 7.68086 30.4238 8.41467 30.4238Z" fill="white"/>
</g>
</g>
<defs>
<linearGradient id="paint0_linear_322_6979" x1="6.30466" y1="18.2623" x2="28.3493" y2="4.58914" gradientUnits="userSpaceOnUse">
<stop stop-color="#20A7FA"/>
<stop offset="0.4" stop-color="#3BD5FF"/>
<stop offset="1" stop-color="#C4B0FF"/>
</linearGradient>
<linearGradient id="paint1_linear_322_6979" x1="13.8918" y1="22.9249" x2="26.164" y2="3.27423" gradientUnits="userSpaceOnUse">
<stop stop-color="#165AD9"/>
<stop offset="0.5008" stop-color="#1880E5"/>
<stop offset="1" stop-color="#8587FF"/>
</linearGradient>
<linearGradient id="paint2_linear_322_6979" x1="22.8423" y1="23.1921" x2="9.21734" y2="12.0903" gradientUnits="userSpaceOnUse">
<stop offset="0.236946" stop-color="#448AFF" stop-opacity="0"/>
<stop offset="0.792113" stop-color="#0032B1" stop-opacity="0.2"/>
</linearGradient>
<linearGradient id="paint3_linear_322_6979" x1="21.1083" y1="27.4672" x2="42.6408" y2="13.6864" gradientUnits="userSpaceOnUse">
<stop stop-color="#1A43A6"/>
<stop offset="0.492267" stop-color="#2052CB"/>
<stop offset="1" stop-color="#5F20CB"/>
</linearGradient>
<linearGradient id="paint4_linear_322_6979" x1="27.1867" y1="26.6434" x2="14.1024" y2="15.3212" gradientUnits="userSpaceOnUse">
<stop stop-color="#0045B9" stop-opacity="0"/>
<stop offset="0.669859" stop-color="#0D1F69" stop-opacity="0.2"/>
</linearGradient>
<radialGradient id="paint5_radial_322_6979" cx="0" cy="0" r="1" gradientUnits="userSpaceOnUse" gradientTransform="translate(21.0544 1.89758) rotate(-90) scale(28.4229 30.7633)">
<stop offset="0.568182" stop-color="#275FF0" stop-opacity="0"/>
<stop offset="0.992424" stop-color="#002177"/>
</radialGradient>
<linearGradient id="paint6_linear_322_6979" x1="39.997" y1="26.239" x2="20.8963" y2="26.239" gradientUnits="userSpaceOnUse">
<stop stop-color="#4DC4FF"/>
<stop offset="0.196145" stop-color="#0FAFFF"/>
</linearGradient>
<radialGradient id="paint7_radial_322_6979" cx="0" cy="0" r="1" gradientUnits="userSpaceOnUse" gradientTransform="translate(25.3604 34.6267) rotate(-45) scale(12.1806)">
<stop offset="0.259477" stop-color="#0060D1" stop-opacity="0.4"/>
<stop offset="0.908166" stop-color="#0383F1" stop-opacity="0"/>
</radialGradient>
<radialGradient id="paint8_radial_322_6979" cx="0" cy="0" r="1" gradientUnits="userSpaceOnUse" gradientTransform="translate(6.98065 43.6373) rotate(-52.6577) scale(41.3474 37.3886)">
<stop offset="0.732317" stop-color="#F4A7F7" stop-opacity="0"/>
<stop offset="1" stop-color="#F4A7F7" stop-opacity="0.501961"/>
</radialGradient>
<radialGradient id="paint9_radial_322_6979" cx="0" cy="0" r="1" gradientUnits="userSpaceOnUse" gradientTransform="translate(15.3373 23.701) rotate(123.339) scale(21.8159 56.6147)">
<stop stop-color="#49DEFF"/>
<stop offset="0.724349" stop-color="#29C3FF"/>
</radialGradient>
<linearGradient id="paint10_linear_322_6979" x1="-0.570844" y1="34.5853" x2="17.8196" y2="34.572" gradientUnits="userSpaceOnUse">
<stop offset="0.205882" stop-color="#6CE0FF"/>
<stop offset="0.535" stop-color="#50D5FF" stop-opacity="0"/>
</linearGradient>
<radialGradient id="paint11_radial_322_6979" cx="0" cy="0" r="1" gradientUnits="userSpaceOnUse" gradientTransform="translate(-0.0600927 19.5786) rotate(46.9242) scale(22.1695)">
<stop offset="0.038877" stop-color="#0091FF"/>
<stop offset="0.919119" stop-color="#183DAD"/>
</radialGradient>
<radialGradient id="paint12_radial_322_6979" cx="0" cy="0" r="1" gradientUnits="userSpaceOnUse" gradientTransform="translate(8.42076 29.1872) rotate(90) scale(11.7891 13.5983)">
<stop offset="0.557796" stop-color="#0FA5F7" stop-opacity="0"/>
<stop offset="1" stop-color="#74C6FF" stop-opacity="0.501961"/>
</radialGradient>
<clipPath id="clip0_322_6979">
<rect width="40" height="40" fill="white"/>
</clipPath>
<clipPath id="clip1_322_6979">
<rect width="40" height="37.8702" fill="white" transform="translate(0 1.06528)"/>
</clipPath>
</defs>
</svg>
