<svg width="48" height="48" viewBox="0 0 48 48" fill="none" xmlns="http://www.w3.org/2000/svg">
<path d="M0 24C0 10.7452 10.7452 0 24 0V0C37.2548 0 48 10.7452 48 24V24C48 37.2548 37.2548 48 24 48V48C10.7452 48 0 37.2548 0 24V24Z" fill="#1B9847"/>
<path fill-rule="evenodd" clip-rule="evenodd" d="M24.3075 12.5555H14.9143V39H22.2134V33.4691H24.3075C30.2603 33.4691 35.1365 28.8148 35.1365 23.0123C35.1365 17.2098 30.2603 12.5555 24.3075 12.5555ZM22.2134 26.3827V19.642H24.3075C26.285 19.642 27.8374 21.1783 27.8374 23.0123C27.8374 24.8463 26.285 26.3827 24.3075 26.3827H22.2134Z" fill="#24292E"/>
<path fill-rule="evenodd" clip-rule="evenodd" d="M17.2477 11.7778H25.863C31.4142 11.7778 35.9143 16.1113 35.9143 21.4568C35.9143 26.8024 31.4142 31.1359 25.863 31.1359H22.9913V36.6667H17.2477V11.7778ZM22.9913 25.605H25.863C28.2421 25.605 30.1708 23.7478 30.1708 21.4568C30.1708 19.1659 28.2421 17.3087 25.863 17.3087H22.9913V25.605Z" fill="white"/>
<path fill-rule="evenodd" clip-rule="evenodd" d="M16.4699 11H25.8631C31.8159 11 36.6921 15.6542 36.6921 21.4568C36.6921 27.2593 31.8159 31.9136 25.8631 31.9136H23.769V37.4444H16.4699V11ZM18.0255 12.5556V35.8889H22.2135V30.358H25.8631C31.0126 30.358 35.1366 26.3454 35.1366 21.4568C35.1366 16.5682 31.0126 12.5556 25.8631 12.5556H18.0255ZM22.2135 16.5309H25.8631C28.6438 16.5309 30.9486 18.7089 30.9486 21.4568C30.9486 24.2047 28.6438 26.3827 25.8631 26.3827H22.2135V16.5309ZM23.769 18.0864V24.8272H25.8631C27.8406 24.8272 29.393 23.2908 29.393 21.4568C29.393 19.6228 27.8406 18.0864 25.8631 18.0864H23.769Z" fill="#24292E"/>
</svg>
