<svg width="40" height="40" viewBox="0 0 40 40" fill="none" xmlns="http://www.w3.org/2000/svg">
<path d="M16.9278 9.89408C18.1144 8.6565 19.7685 7.88939 21.5964 7.88939C24.0266 7.88939 26.1481 9.24383 27.2778 11.2575C28.2877 10.805 29.3814 10.5743 30.4871 10.5743C34.8711 10.5743 38.425 14.1582 38.425 18.5811C38.425 23.0039 34.8711 26.5878 30.4871 26.5878C29.9508 26.5878 29.4294 26.5339 28.9229 26.432C27.9281 28.2059 26.0313 29.4046 23.8588 29.4046C22.9478 29.4046 22.0878 29.1948 21.3207 28.8202C20.3139 31.1935 17.9646 32.8536 15.2258 32.8536C12.376 32.8536 9.94584 31.0497 9.01392 28.5206C8.5974 28.6075 8.17489 28.6524 7.74938 28.6524C4.35729 28.6554 1.60647 25.8746 1.60647 22.4466C1.60048 20.2351 2.77212 18.1855 4.67792 17.0678C4.28837 16.1718 4.0876 15.2039 4.0906 14.2271C4.0906 10.2806 7.2939 7.08332 11.2433 7.08332C13.4728 7.08032 15.5763 8.12012 16.9278 9.89408Z" fill="#00A1E0"/>
<path d="M14.0151 20.7685C14.0151 20.8045 13.9911 20.8344 13.9551 20.8344H13.3888C13.3528 20.8344 13.3288 20.8045 13.3288 20.7685V16.2138C13.3288 16.1778 13.3528 16.1508 13.3888 16.1508H13.9551C13.9911 16.1508 14.0151 16.1808 14.0151 16.2138V20.7685ZM23.55 16.1538C23.565 16.1598 23.604 16.1808 23.589 16.2287L23.4242 16.6782C23.4122 16.7112 23.4002 16.7322 23.3313 16.7112C23.2384 16.6812 23.1425 16.6662 23.0466 16.6662C22.9627 16.6662 22.8848 16.6782 22.8189 16.6992C22.75 16.7202 22.69 16.7591 22.6391 16.8101C22.5732 16.873 22.5222 16.9509 22.4893 17.0378C22.4114 17.2626 22.3814 17.5053 22.3754 17.5203H23.0586C23.1155 17.5203 23.1335 17.5472 23.1305 17.5892L23.0496 18.0327C23.0376 18.0986 22.9777 18.0956 22.9777 18.0956H22.2735L21.7941 20.8165C21.7521 21.0592 21.6892 21.2989 21.6053 21.5326C21.5304 21.7304 21.4525 21.8742 21.3266 22.0091C21.2187 22.1319 21.0839 22.2278 20.9311 22.2848C20.7902 22.3387 20.6104 22.3657 20.4127 22.3657C20.3198 22.3657 20.2179 22.3627 20.101 22.3357C20.0351 22.3207 19.9692 22.3027 19.9063 22.2788C19.8793 22.2698 19.8583 22.2368 19.8733 22.1919C19.8883 22.1499 20.0141 21.8053 20.0321 21.7574C20.0531 21.7034 20.11 21.7244 20.11 21.7244C20.149 21.7394 20.1729 21.7514 20.2239 21.7604C20.2748 21.7694 20.3437 21.7783 20.3947 21.7783C20.4876 21.7783 20.5715 21.7664 20.6464 21.7424C20.7363 21.7154 20.7872 21.6615 20.8412 21.5926C20.8981 21.5206 20.9431 21.4218 20.991 21.2869C21.0389 21.1521 21.0809 20.9753 21.1169 20.7625L21.5963 18.0896H21.1258C21.0689 18.0896 21.0509 18.0626 21.0569 18.0207L21.1348 17.5772C21.1468 17.5143 21.2068 17.5143 21.2068 17.5143H21.6892L21.7162 17.3704C21.7881 16.9419 21.9319 16.6153 22.1447 16.4025C22.3574 16.1868 22.6631 16.0789 23.0496 16.0789C23.1605 16.0789 23.2564 16.0849 23.3403 16.0999C23.4212 16.1209 23.4811 16.1329 23.55 16.1538ZM28.815 17.6311C28.794 17.6881 28.6921 17.9817 28.6532 18.0776C28.6382 18.1136 28.6172 18.1405 28.5752 18.1345C28.5752 18.1345 28.4524 18.1076 28.3415 18.1076C28.2636 18.1076 28.1527 18.1166 28.0538 18.1465C27.955 18.1765 27.8651 18.2304 27.7902 18.3053C27.7122 18.3803 27.6493 18.4851 27.6044 18.62C27.5594 18.7548 27.5324 18.9676 27.5324 19.1803V20.7715C27.5324 20.8075 27.5055 20.8374 27.4695 20.8374H26.9092C26.8732 20.8374 26.8432 20.8105 26.8432 20.7715V17.5862C26.8432 17.5502 26.8702 17.5203 26.9062 17.5203H27.4545C27.4905 17.5203 27.5175 17.5502 27.5175 17.5862V17.8469C27.5984 17.736 27.7452 17.6401 27.8771 17.5802C28.0089 17.5203 28.1587 17.4753 28.4284 17.4903C28.5663 17.4993 28.749 17.5382 28.785 17.5502C28.812 17.5652 28.827 17.5982 28.815 17.6311C28.815 17.6281 28.815 17.6281 28.815 17.6311ZM10.7518 20.2291C10.7518 20.2291 10.9436 20.379 11.3781 20.352C11.6837 20.334 11.9534 20.2771 11.9534 20.2771V19.3062C11.9534 19.3062 11.6807 19.2612 11.3751 19.2582C10.9406 19.2523 10.7548 19.4141 10.7578 19.4141C10.629 19.504 10.566 19.6388 10.566 19.8276C10.566 19.9475 10.587 20.0403 10.629 20.1063C10.6559 20.1452 10.6679 20.1632 10.7518 20.2291ZM11.5998 18.7309C11.5998 18.7309 11.7676 18.7458 11.9504 18.7728V18.6829C11.9504 18.3982 11.8905 18.2634 11.7736 18.1735C11.6538 18.0836 11.477 18.0357 11.2462 18.0357C11.2462 18.0357 10.7278 18.0297 10.3173 18.2514C10.2993 18.2634 10.2814 18.2694 10.2814 18.2694C10.2814 18.2694 10.2304 18.2874 10.2124 18.2334L10.0626 17.8289C10.0386 17.769 10.0806 17.745 10.0806 17.745C10.2724 17.5952 10.7368 17.5053 10.7368 17.5053C10.9256 17.4723 11.1174 17.4543 11.3092 17.4513C11.7347 17.4513 12.0643 17.5502 12.289 17.745C12.5138 17.9428 12.6277 18.2604 12.6277 18.6859V20.6397C12.6277 20.6397 12.6306 20.6966 12.5797 20.7086C12.5797 20.7086 12.5018 20.7296 12.4299 20.7475C12.358 20.7625 12.1003 20.8165 11.8905 20.8524C11.6748 20.8884 11.459 20.9063 11.2432 20.9063C11.0365 20.9063 10.8447 20.8854 10.6799 20.8494C10.5241 20.8165 10.3772 20.7535 10.2454 20.6606C10.1255 20.5737 10.0296 20.4599 9.96672 20.328C9.9008 20.1932 9.86784 20.0314 9.86784 19.8396C9.86784 19.6538 9.90679 19.489 9.98171 19.3481C10.0566 19.2073 10.1615 19.0904 10.2903 18.9975C10.4252 18.9017 10.575 18.8327 10.7338 18.7908C10.9016 18.7458 11.0754 18.7249 11.2612 18.7249C11.4021 18.7189 11.5129 18.7219 11.5998 18.7309ZM15.3635 18.8327H16.8857C16.8708 18.638 16.8318 18.4612 16.7449 18.3293C16.6131 18.1286 16.4273 18.0207 16.1456 18.0207C15.8639 18.0207 15.6661 18.1315 15.5343 18.3293C15.4504 18.4612 15.3935 18.629 15.3635 18.8327ZM17.488 18.3863C17.6259 18.8657 17.554 19.2822 17.551 19.3062C17.545 19.3601 17.488 19.3601 17.488 19.3601L15.3545 19.3571C15.3695 19.6808 15.4444 19.9115 15.6032 20.0673C15.759 20.2201 16.0018 20.316 16.3344 20.319C16.8408 20.319 17.0595 20.2171 17.2124 20.1602C17.2124 20.1602 17.2693 20.1392 17.2933 20.1962L17.4311 20.5857C17.4581 20.6516 17.4371 20.6726 17.4131 20.6876C17.2783 20.7625 16.9547 20.9004 16.3374 20.9004C16.0377 20.9004 15.777 20.8584 15.5643 20.7745C15.3605 20.6996 15.1777 20.5767 15.0279 20.4179C14.887 20.2621 14.7792 20.0763 14.7192 19.8755C14.6533 19.6538 14.6204 19.4261 14.6233 19.1953C14.6233 18.9526 14.6533 18.7249 14.7162 18.5151C14.7732 18.3113 14.8721 18.1256 15.0039 17.9607C15.1388 17.8019 15.3066 17.6731 15.4953 17.5862C15.6931 17.4933 15.9328 17.4483 16.1995 17.4483C16.4093 17.4483 16.619 17.4903 16.8108 17.5712C16.9457 17.6281 17.0805 17.733 17.2154 17.8798C17.3023 17.9787 17.4341 18.1825 17.488 18.3863ZM32.4588 18.8327H33.981C33.966 18.638 33.9271 18.4612 33.8402 18.3293C33.7053 18.1286 33.5225 18.0207 33.2409 18.0207C32.9592 18.0207 32.7614 18.1315 32.6296 18.3293C32.5427 18.4612 32.4857 18.629 32.4588 18.8327ZM34.5803 18.3863C34.7182 18.8657 34.6462 19.2822 34.6432 19.3062C34.6373 19.3601 34.5803 19.3631 34.5803 19.3631L32.4468 19.3601C32.4588 19.6838 32.5367 19.9145 32.6955 20.0703C32.8483 20.2231 33.094 20.319 33.4266 20.322C33.9331 20.322 34.1488 20.2201 34.3016 20.1632C34.3016 20.1632 34.3616 20.1422 34.3825 20.1992L34.5204 20.5887C34.5474 20.6546 34.5264 20.6756 34.5024 20.6906C34.3676 20.7655 34.0439 20.9034 33.4296 20.9034C33.13 20.9034 32.8693 20.8614 32.6565 20.7775C32.4528 20.7026 32.27 20.5797 32.1202 20.4209C31.9763 20.2651 31.8714 20.0793 31.8115 19.8785C31.7456 19.6568 31.7126 19.4291 31.7156 19.1983C31.7156 18.9556 31.7456 18.7279 31.8085 18.5181C31.8714 18.3053 31.9673 18.1196 32.0962 17.9637C32.231 17.8049 32.3988 17.6761 32.5876 17.5892C32.7824 17.4963 33.0251 17.4513 33.2918 17.4513C33.5195 17.4513 33.7293 17.4993 33.9031 17.5742C34.0379 17.6311 34.1698 17.736 34.3076 17.8828C34.3945 17.9787 34.5264 18.1825 34.5803 18.3863ZM31.353 20.2411L31.5059 20.6696C31.5268 20.7206 31.4819 20.7445 31.4819 20.7445C31.2422 20.8374 30.9126 20.9034 30.5889 20.9034C30.0436 20.9034 29.624 20.7445 29.3424 20.4359C29.0637 20.1272 28.9228 19.7047 28.9228 19.1803C28.9228 18.9376 28.9588 18.7099 29.0277 18.5031C29.0966 18.2934 29.1985 18.1106 29.3334 17.9548C29.4742 17.7959 29.648 17.6701 29.8398 17.5862C30.0406 17.4963 30.2773 17.4513 30.541 17.4513C30.7208 17.4513 30.8796 17.4633 31.0144 17.4813C31.1613 17.5053 31.353 17.5562 31.4339 17.5892C31.4489 17.5952 31.4909 17.6161 31.4729 17.6641C31.413 17.8319 31.374 17.9428 31.3171 18.0956C31.2931 18.1615 31.2422 18.1405 31.2422 18.1405C31.0354 18.0746 30.8376 18.0447 30.5769 18.0447C30.2653 18.0447 30.0316 18.1495 29.8787 18.3533C29.7229 18.5571 29.639 18.8267 29.636 19.1833C29.636 19.5759 29.7319 19.8665 29.9057 20.0463C30.0795 20.2261 30.3222 20.316 30.6279 20.316C30.7507 20.316 30.8676 20.307 30.9725 20.2921C31.0774 20.2771 31.1733 20.2441 31.2661 20.2082C31.2721 20.2022 31.3321 20.1812 31.353 20.2411ZM25.5457 19.1803C25.5457 18.8148 25.4768 18.5271 25.345 18.3263C25.2131 18.1256 25.0094 18.0297 24.7307 18.0297C24.452 18.0297 24.2512 18.1256 24.1194 18.3263C23.9875 18.5271 23.9216 18.8148 23.9216 19.1803C23.9216 19.5459 23.9875 19.8336 24.1224 20.0374C24.2542 20.2381 24.452 20.337 24.7337 20.337C25.0154 20.337 25.2161 20.2381 25.348 20.0374C25.4768 19.8366 25.5457 19.5459 25.5457 19.1803ZM26.175 18.5031C26.2379 18.7099 26.2679 18.9406 26.2679 19.1803C26.2679 19.4231 26.2379 19.6508 26.175 19.8576C26.1181 20.0583 26.0222 20.2441 25.8873 20.4059C25.7555 20.5617 25.5907 20.6876 25.4019 20.7715C25.2071 20.8584 24.9824 20.9034 24.7247 20.9034C24.467 20.9034 24.2422 20.8584 24.0505 20.7715C23.8647 20.6876 23.6969 20.5617 23.565 20.4059C23.4332 20.2441 23.3373 20.0583 23.2774 19.8576C23.2144 19.6388 23.1815 19.4081 23.1845 19.1803C23.1845 18.9376 23.2144 18.7099 23.2774 18.5031C23.3403 18.2934 23.4362 18.1106 23.562 17.9548C23.6939 17.7989 23.8617 17.6731 24.0475 17.5862C24.2393 17.4963 24.467 17.4513 24.7217 17.4513C24.9764 17.4513 25.2041 17.4963 25.3989 17.5862C25.5907 17.6761 25.7555 17.7989 25.8844 17.9548C26.0192 18.1106 26.1151 18.2964 26.175 18.5031ZM17.9975 20.4479L18.1473 20.0344C18.1683 19.9654 18.2312 19.9924 18.2462 20.0014C18.2881 20.0254 18.3181 20.0493 18.372 20.0793C18.8125 20.358 19.217 20.361 19.3459 20.361C19.6725 20.361 19.8763 20.1872 19.8763 19.9534V19.9385C19.8763 19.6838 19.5616 19.5879 19.1991 19.477L19.1182 19.45C18.6177 19.3092 18.0874 19.1024 18.0874 18.4732V18.4612C18.0874 17.8619 18.5698 17.4453 19.262 17.4453H19.3369C19.7414 17.4453 20.137 17.5622 20.4187 17.736C20.4426 17.751 20.4696 17.781 20.4546 17.8229C20.4396 17.8589 20.3138 18.1975 20.3018 18.2364C20.2748 18.3053 20.2029 18.2604 20.2029 18.2604C19.9063 18.1046 19.5766 18.0207 19.244 18.0147C18.9504 18.0147 18.7616 18.1705 18.7616 18.3803V18.3922C18.7616 18.638 19.0852 18.7428 19.4598 18.8657L19.5227 18.8867C20.0201 19.0425 20.5505 19.2612 20.5505 19.8606V19.8725C20.5505 20.5198 20.0801 20.9213 19.3249 20.9213C18.9534 20.9213 18.5998 20.8644 18.2252 20.6636C18.1533 20.6217 18.0844 20.5887 18.0154 20.5378C18.0064 20.5228 17.9735 20.5108 17.9975 20.4479ZM6.94022 20.4479L7.09004 20.0344C7.11401 19.9624 7.16795 19.9864 7.18893 20.0014C7.23088 20.0254 7.26085 20.0493 7.31478 20.0793C7.75527 20.358 8.15981 20.361 8.28866 20.361C8.61828 20.361 8.82204 20.1872 8.82204 19.9534V19.9385C8.82204 19.6838 8.50741 19.5879 8.14483 19.477L8.06392 19.45C7.56649 19.3092 7.03311 19.1024 7.03311 18.4732V18.4612C7.03311 17.8619 7.51555 17.4453 8.20775 17.4453H8.28267C8.6872 17.4453 9.07975 17.5622 9.36442 17.736C9.39139 17.751 9.41536 17.781 9.40038 17.8229L9.24755 18.2364C9.22058 18.3053 9.14567 18.2604 9.14567 18.2604C8.84901 18.1046 8.52239 18.0207 8.18678 18.0147C7.89312 18.0147 7.70433 18.1705 7.70433 18.3803V18.3922C7.70433 18.638 8.02796 18.7428 8.40253 18.8657L8.46546 18.8867C8.96288 19.0425 9.49327 19.2612 9.49327 19.8606V19.8725C9.49327 20.5198 9.02281 20.9213 8.26768 20.9213C7.89611 20.9213 7.54252 20.8644 7.16795 20.6636C7.09604 20.6217 7.02712 20.5887 6.95819 20.5378C6.94921 20.5228 6.91624 20.5108 6.94022 20.4479Z" fill="white"/>
</svg>
