<svg width="40" height="40" viewBox="0 0 40 40" fill="none" xmlns="http://www.w3.org/2000/svg">
<path d="M9.66315 24.6961C9.66315 26.7751 7.98285 28.4554 5.90384 28.4554C3.82483 28.4554 2.14453 26.7751 2.14453 24.6961C2.14453 22.6171 3.82483 20.9368 5.90384 20.9368H9.66315V24.6961ZM11.5428 24.6961C11.5428 22.6171 13.2231 20.9368 15.3021 20.9368C17.3811 20.9368 19.0614 22.6171 19.0614 24.6961V34.0943C19.0614 36.1734 17.3811 37.8537 15.3021 37.8537C13.2231 37.8537 11.5428 36.1734 11.5428 34.0943V24.6961Z" fill="#E01E5A"/>
<path d="M15.3023 9.60193C13.2233 9.60193 11.543 7.92163 11.543 5.84262C11.543 3.76361 13.2233 2.08331 15.3023 2.08331C17.3813 2.08331 19.0616 3.76361 19.0616 5.84262V9.60193H15.3023ZM15.3023 11.5101C17.3813 11.5101 19.0616 13.1904 19.0616 15.2694C19.0616 17.3484 17.3813 19.0287 15.3023 19.0287H5.87552C3.79651 19.0287 2.11621 17.3484 2.11621 15.2694C2.11621 13.1904 3.79651 11.5101 5.87552 11.5101H15.3023Z" fill="#36C5F0"/>
<path d="M30.368 15.2694C30.368 13.1904 32.0483 11.5101 34.1273 11.5101C36.2063 11.5101 37.8866 13.1904 37.8866 15.2694C37.8866 17.3484 36.2063 19.0287 34.1273 19.0287H30.368V15.2694ZM28.4883 15.2694C28.4883 17.3484 26.808 19.0287 24.729 19.0287C22.65 19.0287 20.9697 17.3484 20.9697 15.2694V5.84262C20.9697 3.76361 22.65 2.08331 24.729 2.08331C26.808 2.08331 28.4883 3.76361 28.4883 5.84262V15.2694Z" fill="#2EB67D"/>
<path d="M24.729 30.335C26.808 30.335 28.4883 32.0153 28.4883 34.0943C28.4883 36.1734 26.808 37.8537 24.729 37.8537C22.65 37.8537 20.9697 36.1734 20.9697 34.0943V30.335H24.729ZM24.729 28.4554C22.65 28.4554 20.9697 26.7751 20.9697 24.6961C20.9697 22.6171 22.65 20.9368 24.729 20.9368H34.1558C36.2348 20.9368 37.9151 22.6171 37.9151 24.6961C37.9151 26.7751 36.2348 28.4554 34.1558 28.4554H24.729Z" fill="#ECB22E"/>
</svg>
