<svg width="40" height="40" viewBox="0 0 40 40" fill="none" xmlns="http://www.w3.org/2000/svg">
<rect width="40" height="40" rx="20" fill="black"/>
<path d="M25.5775 16.0357C27.3781 17.3172 29.5838 18.0711 31.9662 18.0711V13.5069C31.5153 13.507 31.0656 13.4602 30.6245 13.3672V16.9599C28.2424 16.9599 26.0369 16.2059 24.2358 14.9245V24.2387C24.2358 28.8982 20.4419 32.6751 15.7622 32.6751C14.0161 32.6751 12.3931 32.1495 11.0449 31.2482C12.5837 32.8146 14.7295 33.7863 17.1036 33.7863C21.7836 33.7863 25.5777 30.0093 25.5777 25.3497V16.0357H25.5775V16.0357ZM27.2326 11.431C26.3124 10.4301 25.7082 9.13666 25.5775 7.70668V7.11963H24.3061C24.6261 8.93713 25.7177 10.4899 27.2326 11.431ZM14.0049 27.6727C13.4907 27.0015 13.2129 26.1805 13.2141 25.3364C13.2141 23.2053 14.9495 21.4774 17.0904 21.4774C17.4893 21.4773 17.8859 21.5382 18.2662 21.6583V16.9921C17.8218 16.9315 17.3734 16.9057 16.9251 16.9152V20.5471C16.5446 20.427 16.1478 20.366 15.7487 20.3664C13.6078 20.3664 11.8726 22.0941 11.8726 24.2254C11.8726 25.7324 12.7399 27.0371 14.0049 27.6727Z" fill="#FF004F"/>
<path d="M24.2359 14.9869C26.0369 16.2785 28.2424 17.0385 30.6246 17.0385V13.4171C29.2949 13.1328 28.1177 12.4355 27.2326 11.4655C25.7176 10.5168 24.6261 8.95157 24.3061 7.11963H20.9664V25.4954C20.9589 27.6376 19.2265 29.3722 17.0902 29.3722C15.8313 29.3722 14.7129 28.77 14.0046 27.8371C12.7398 27.1964 11.8724 25.8812 11.8724 24.3623C11.8724 22.2141 13.6076 20.4724 15.7485 20.4724C16.1587 20.4724 16.5541 20.5365 16.9249 20.6546V16.9936C12.3274 17.0889 8.62988 20.8589 8.62988 25.4955C8.62988 27.81 9.55065 29.9082 11.0451 31.4413C12.3933 32.3498 14.0162 32.8796 15.7623 32.8796C20.4422 32.8796 24.236 29.0723 24.236 24.3757V14.9869H24.2359Z" fill="white"/>
<path d="M30.6244 13.4174V12.4382C29.4253 12.4401 28.2498 12.1031 27.2324 11.4658C28.133 12.4552 29.3189 13.1375 30.6244 13.4174ZM24.3059 7.11998C24.2754 6.9449 24.2519 6.76866 24.2356 6.59175V6H19.6244V24.3759C19.6171 26.5179 17.8848 28.2525 15.7483 28.2525C15.1211 28.2525 14.5289 28.1031 14.0044 27.8375C14.7127 28.7703 15.8311 29.3725 17.09 29.3725C19.2261 29.3725 20.9587 27.6381 20.9662 25.4958V7.11998H24.3059ZM16.9249 16.994V15.9515C16.5396 15.8987 16.1511 15.8722 15.7622 15.8724C11.082 15.8723 7.28809 19.6796 7.28809 24.3759C7.28809 27.3203 8.77915 29.9151 11.0449 31.4415C9.55053 29.9085 8.62976 27.8102 8.62976 25.4957C8.62976 20.8593 12.3272 17.0893 16.9249 16.994Z" fill="#00F2EA"/>
</svg>
