<svg width="40" height="40" viewBox="0 0 40 40" fill="none" xmlns="http://www.w3.org/2000/svg">
<path d="M32.7802 36.4585H7.21932C5.07289 36.4585 3.33301 34.7187 3.33301 32.5722V7.01132C3.33301 4.86489 5.07289 3.125 7.21932 3.125H32.7798C34.9263 3.125 36.6662 4.86489 36.6662 7.01132V32.5718C36.6666 34.7187 34.9267 36.4585 32.7802 36.4585Z" fill="black" stroke="white" stroke-width="0.208333" stroke-miterlimit="10"/>
<path d="M8.45393 8.93243L17.4131 20.9119L8.39746 30.6514H10.4267L18.32 22.1241L24.6974 30.6514H31.6024L22.139 17.9983L30.5308 8.93243H28.5016L21.2324 16.7857L15.359 8.93243H8.45393ZM11.438 10.4274H14.6101L28.618 29.1569H25.4459L11.438 10.4274Z" fill="white"/>
</svg>
